<svg width="32" height="32" viewBox="0 0 32 32" fill="none" xmlns="http://www.w3.org/2000/svg">
<path d="M16.0843 30.1687C23.8629 30.1687 30.1687 23.8629 30.1687 16.0843C30.1687 8.30576 23.8629 2 16.0843 2C8.30576 2 2 8.30576 2 16.0843C2 23.8629 8.30576 30.1687 16.0843 30.1687Z" stroke="white" stroke-width="2.51506" stroke-miterlimit="10"/>
<path d="M16.0844 2.0238V30.1686" stroke="white" stroke-width="1.97181" stroke-miterlimit="10"/>
<path d="M16.0844 30.1687C19.9736 30.1687 23.1265 23.8629 23.1265 16.0843C23.1265 8.30576 19.9736 2 16.0844 2C12.1951 2 9.04219 8.30576 9.04219 16.0843C9.04219 23.8629 12.1951 30.1687 16.0844 30.1687Z" stroke="white" stroke-width="2.51506" stroke-miterlimit="10"/>
<path d="M2.02383 17.5934H30.1687" stroke="white" stroke-width="2.51506" stroke-miterlimit="10"/>
</svg>
